<?xml version="1.0" encoding="utf-8"?>
<!-- Generator: Adobe Illustrator 28.3.0, SVG Export Plug-In . SVG Version: 6.00 Build 0)  -->
<svg version="1.1" id="Layer_1" xmlns="http://www.w3.org/2000/svg" xmlns:xlink="http://www.w3.org/1999/xlink" x="0px" y="0px"
	 viewBox="0 0 168 27" style="enable-background:new 0 0 168 27;" xml:space="preserve">
<style type="text/css">
	.st0{fill:url(#SVGID_1_);}
	.st1{fill:url(#SVGID_00000034086113661093281620000012066305365499770007_);}
	.st2{fill:url(#SVGID_00000159442666487190653810000001292077958424729259_);}
	.st3{fill:url(#SVGID_00000136407442857420261440000009848727965078870410_);}
	.st4{fill:url(#SVGID_00000065059892389331893190000004594268733437017522_);}
	.st5{fill:url(#SVGID_00000107561565962921333760000000811815631140401853_);}
	.st6{fill:url(#SVGID_00000181061782894173883090000012841418914779007376_);}
	.st7{fill:url(#SVGID_00000086659920766753967910000016125555988574963851_);}
	.st8{fill:none;stroke:url(#SVGID_00000140723361792690140490000000727153816374676158_);stroke-width:0.5493;}
	.st9{fill:none;stroke:url(#SVGID_00000169559512848415787110000004151281205737000093_);stroke-width:0.5493;}
	.st10{fill:url(#SVGID_00000072271894936715353520000013159529258247044793_);}
	.st11{fill:#4B3DA0;}
	.st12{font-family:'JosefinSans-Bold';}
	.st13{font-size:24.5073px;}
</style>
<g>
	<g>
		
			<linearGradient id="SVGID_1_" gradientUnits="userSpaceOnUse" x1="47.3512" y1="26.2247" x2="47.6624" y2="26.2184" gradientTransform="matrix(1 0 0 -1 0 28)">
			<stop  offset="0" style="stop-color:#26A4FF"/>
			<stop  offset="1" style="stop-color:#0D9AFF"/>
		</linearGradient>
		<path class="st0" d="M47.5,1.9c0.1,0,0.2-0.1,0.2-0.2c0-0.1-0.1-0.2-0.2-0.2c-0.1,0-0.2,0.1-0.2,0.2C47.3,1.9,47.4,1.9,47.5,1.9z"
			/>
	</g>
	<g>
		
			<linearGradient id="SVGID_00000050645832138879068440000014265306742349279873_" gradientUnits="userSpaceOnUse" x1="21.3017" y1="22.392" x2="22.109" y2="22.3756" gradientTransform="matrix(1 0 0 -1 0 28)">
			<stop  offset="0" style="stop-color:#26A4FF"/>
			<stop  offset="1" style="stop-color:#0D9AFF"/>
		</linearGradient>
		<path style="fill:url(#SVGID_00000050645832138879068440000014265306742349279873_);" d="M21.7,6c0.2,0,0.4-0.2,0.4-0.4
			c0-0.2-0.2-0.4-0.4-0.4c-0.2,0-0.4,0.2-0.4,0.4C21.3,5.8,21.5,6,21.7,6z"/>
	</g>
	<g>
		
			<linearGradient id="SVGID_00000155849701989041097200000016425635858643345560_" gradientUnits="userSpaceOnUse" x1="17.1195" y1="10.0236" x2="17.9269" y2="10.0074" gradientTransform="matrix(1 0 0 -1 0 28)">
			<stop  offset="0" style="stop-color:#26A4FF"/>
			<stop  offset="1" style="stop-color:#0D9AFF"/>
		</linearGradient>
		<path style="fill:url(#SVGID_00000155849701989041097200000016425635858643345560_);" d="M17.5,18.4c0.2,0,0.4-0.2,0.4-0.4
			c0-0.2-0.2-0.4-0.4-0.4c-0.2,0-0.4,0.2-0.4,0.4C17.1,18.2,17.3,18.4,17.5,18.4z"/>
	</g>
	<g>
		
			<linearGradient id="SVGID_00000111895567359442873040000001766559522413757325_" gradientUnits="userSpaceOnUse" x1="41.1602" y1="6.6285" x2="41.9675" y2="6.6121" gradientTransform="matrix(1 0 0 -1 0 28)">
			<stop  offset="0" style="stop-color:#26A4FF"/>
			<stop  offset="1" style="stop-color:#0D9AFF"/>
		</linearGradient>
		<path style="fill:url(#SVGID_00000111895567359442873040000001766559522413757325_);" d="M41.5,21.8c0.2,0,0.4-0.2,0.4-0.4
			S41.8,21,41.5,21c-0.2,0-0.4,0.2-0.4,0.4S41.3,21.8,41.5,21.8z"/>
	</g>
	<g>
		
			<linearGradient id="SVGID_00000088113383210691091960000009436286913848779656_" gradientUnits="userSpaceOnUse" x1="22.3801" y1="13.5142" x2="22.6913" y2="13.508" gradientTransform="matrix(1 0 0 -1 0 28)">
			<stop  offset="0" style="stop-color:#26A4FF"/>
			<stop  offset="1" style="stop-color:#0D9AFF"/>
		</linearGradient>
		<path style="fill:url(#SVGID_00000088113383210691091960000009436286913848779656_);" d="M22.5,14.7c0.1,0,0.2-0.1,0.2-0.2
			s-0.1-0.2-0.2-0.2c-0.1,0-0.2,0.1-0.2,0.2S22.4,14.7,22.5,14.7z"/>
	</g>
	<g>
		
			<linearGradient id="SVGID_00000057149893136976030960000014343476644935884703_" gradientUnits="userSpaceOnUse" x1="28.2925" y1="26.7489" x2="28.7815" y2="26.739" gradientTransform="matrix(1 0 0 -1 0 28)">
			<stop  offset="0" style="stop-color:#26A4FF"/>
			<stop  offset="1" style="stop-color:#0D9AFF"/>
		</linearGradient>
		<path style="fill:url(#SVGID_00000057149893136976030960000014343476644935884703_);" d="M28.5,1.5c0.1,0,0.2-0.1,0.2-0.3
			S28.7,1,28.5,1c-0.1,0-0.2,0.1-0.2,0.3S28.4,1.5,28.5,1.5z"/>
	</g>
	<g>
		
			<linearGradient id="SVGID_00000086676670277220584840000003478017146213149833_" gradientUnits="userSpaceOnUse" x1="20.1976" y1="16.5612" x2="17.7608" y2="16.1573" gradientTransform="matrix(1 0 0 -1 0 28)">
			<stop  offset="0" style="stop-color:#26A4FF"/>
			<stop  offset="1" style="stop-color:#0D9AFF"/>
		</linearGradient>
		<path style="fill:url(#SVGID_00000086676670277220584840000003478017146213149833_);" d="M19.2,12.9c-0.1,0-0.2,0-0.2-0.1
			C18.8,12,18.7,11.9,18,12c-0.1,0-0.2-0.1-0.2-0.1c0-0.1,0-0.2,0.1-0.2c0.7-0.2,0.8-0.3,0.8-1.1c0-0.1,0.1-0.2,0.1-0.2
			c0.1,0,0.2,0,0.2,0.1c0.2,0.8,0.3,0.8,1.1,0.8c0.1,0,0.2,0.1,0.2,0.1c0,0.1,0,0.2-0.1,0.2c-0.7,0.2-0.8,0.3-0.8,1.1
			C19.4,12.8,19.3,12.9,19.2,12.9z"/>
	</g>
	
		<linearGradient id="SVGID_00000180347899031826402940000015916473171289729666_" gradientUnits="userSpaceOnUse" x1="18.6669" y1="27.404" x2="43.6076" y2="3.4225" gradientTransform="matrix(1 0 0 -1 0 28)">
		<stop  offset="0" style="stop-color:#868CFF"/>
		<stop  offset="1" style="stop-color:#4318FF"/>
	</linearGradient>
	<path style="fill:url(#SVGID_00000180347899031826402940000015916473171289729666_);" d="M32.6,6.2c-0.2,0.1-0.4,0.3-0.4,0.5
		c0,0.2,0.1,0.4,0.4,0.5c1.7,0.7,3,2,3.6,3.8c0.1,0.2,0.3,0.4,0.5,0.4c0.2,0,0.4-0.1,0.5-0.4c0.6-1.8,2-3.1,3.6-3.8
		c0.2-0.1,0.4-0.3,0.4-0.5c0-0.2-0.1-0.4-0.4-0.5c-1.7-0.7-3-2-3.6-3.8C37.2,2.2,37,2,36.8,2c-0.2,0-0.4,0.1-0.5,0.4
		C35.6,4.2,34.3,5.5,32.6,6.2z M26.9,5.6c-0.1-0.3-0.4-0.5-0.7-0.5c-0.3,0-0.6,0.2-0.7,0.5c-1.6,3.6-4.4,6.5-7.8,8.1
		c-0.3,0.1-0.4,0.4-0.4,0.7c0,0.3,0.2,0.6,0.4,0.7c3.4,1.7,6.2,4.5,7.8,8.1c0.1,0.3,0.4,0.5,0.7,0.5c0.3,0,0.6-0.2,0.7-0.5
		c1.6-3.6,4.4-6.5,7.8-8.1c0.3-0.1,0.4-0.4,0.4-0.7c0-0.3-0.2-0.6-0.4-0.7C31.3,12.1,28.5,9.2,26.9,5.6z M36.3,18
		c-0.6,1.8-2,3.1-3.6,3.8c-0.2,0.1-0.4,0.3-0.4,0.5c0,0.2,0.1,0.4,0.4,0.5c1.7,0.7,3,2,3.6,3.8c0.1,0.2,0.3,0.4,0.5,0.4
		c0.2,0,0.4-0.1,0.5-0.4c0.6-1.8,2-3.1,3.6-3.8c0.2-0.1,0.4-0.3,0.4-0.5c0-0.2-0.1-0.4-0.4-0.5c-1.7-0.7-3-2-3.6-3.8
		c-0.1-0.2-0.3-0.4-0.5-0.4C36.6,17.6,36.4,17.8,36.3,18z"/>
	
		<linearGradient id="SVGID_00000171703354860852191710000018115900090525314194_" gradientUnits="userSpaceOnUse" x1="30.3589" y1="7.8679" x2="29.2905" y2="10.8819" gradientTransform="matrix(1 0 0 -1 0 28)">
		<stop  offset="0" style="stop-color:#3F5FFF"/>
		<stop  offset="1" style="stop-color:#3F5FFF;stop-opacity:0"/>
	</linearGradient>
	<path style="fill:none;stroke:url(#SVGID_00000171703354860852191710000018115900090525314194_);stroke-width:0.5493;" d="M29,16.1
		c-7.2,2.6-12.6,5.7-12.2,7c0.4,1.3,6.6,0.2,13.7-2.4c7.2-2.6,12.6-5.7,12.2-7C42.3,12.4,36.1,13.5,29,16.1z"/>
	<g>
		
			<linearGradient id="SVGID_00000103977285730018769880000016142786995332346289_" gradientUnits="userSpaceOnUse" x1="30.3588" y1="7.8684" x2="29.2904" y2="10.8823" gradientTransform="matrix(1 0 0 -1 0 28)">
			<stop  offset="0" style="stop-color:#1DA0FF"/>
			<stop  offset="1" style="stop-color:#199FFF;stop-opacity:0.13"/>
		</linearGradient>
		<path style="fill:none;stroke:url(#SVGID_00000103977285730018769880000016142786995332346289_);stroke-width:0.5493;" d="
			M29,16.1c-7.2,2.6-12.6,5.7-12.2,7c0.4,1.3,6.6,0.2,13.7-2.4c7.2-2.6,12.6-5.7,12.2-7S36.1,13.5,29,16.1z"/>
	</g>
	<g>
		
			<linearGradient id="SVGID_00000054224467821163473470000018035421400315381180_" gradientUnits="userSpaceOnUse" x1="41.7174" y1="22.2116" x2="38.3361" y2="22.6081" gradientTransform="matrix(1 0 0 -1 0 28)">
			<stop  offset="0" style="stop-color:#26A4FF"/>
			<stop  offset="1" style="stop-color:#0D9AFF"/>
		</linearGradient>
		<path style="fill:url(#SVGID_00000054224467821163473470000018035421400315381180_);" d="M39.9,7.4c-0.1,0-0.2-0.1-0.2-0.2
			c0-1.1-0.1-1.3-1.1-1.5c-0.1,0-0.2-0.1-0.2-0.3c0-0.1,0.1-0.2,0.2-0.2c1,0,1.1-0.1,1.5-1.1c0-0.1,0.1-0.2,0.2-0.2
			c0.1,0,0.2,0.1,0.2,0.2c0,1.1,0.1,1.3,1.1,1.5c0.1,0,0.2,0.1,0.2,0.3c0,0.1-0.1,0.2-0.2,0.2c-1,0-1.1,0.1-1.5,1.1
			C40.1,7.3,40,7.4,39.9,7.4z"/>
	</g>
</g>
<text transform="matrix(1 0 0 1 66.7437 22.7027)" class="st11 st12 st13">Mendr</text>
</svg>
